<mxfile host="65bd71144e">
    <diagram id="UX7eQVaHOJTbf-_7FBNB" name="Page-1">
        <mxGraphModel dx="1242" dy="571" grid="1" gridSize="10" guides="1" tooltips="1" connect="1" arrows="1" fold="1" page="1" pageScale="1" pageWidth="850" pageHeight="1100" math="0" shadow="0">
            <root>
                <mxCell id="0"/>
                <mxCell id="1" parent="0"/>
                <mxCell id="6" value="01" style="ellipse;whiteSpace=wrap;html=1;aspect=fixed;" vertex="1" parent="1">
                    <mxGeometry x="215" y="60" width="60" height="60" as="geometry"/>
                </mxCell>
                <mxCell id="7" value="02" style="ellipse;whiteSpace=wrap;html=1;aspect=fixed;" vertex="1" parent="1">
                    <mxGeometry x="370" y="190" width="60" height="60" as="geometry"/>
                </mxCell>
                <mxCell id="8" value="03" style="ellipse;whiteSpace=wrap;html=1;aspect=fixed;" vertex="1" parent="1">
                    <mxGeometry x="300" y="380" width="60" height="60" as="geometry"/>
                </mxCell>
                <mxCell id="9" value="04" style="ellipse;whiteSpace=wrap;html=1;aspect=fixed;" vertex="1" parent="1">
                    <mxGeometry x="110" y="380" width="60" height="60" as="geometry"/>
                </mxCell>
                <mxCell id="10" value="05" style="ellipse;whiteSpace=wrap;html=1;aspect=fixed;" vertex="1" parent="1">
                    <mxGeometry x="50" y="190" width="60" height="60" as="geometry"/>
                </mxCell>
                <mxCell id="11" value="" style="endArrow=classic;html=1;exitX=0.97;exitY=0.84;exitDx=0;exitDy=0;exitPerimeter=0;" edge="1" parent="1" source="6" target="7">
                    <mxGeometry width="50" height="50" relative="1" as="geometry">
                        <mxPoint x="280" y="120" as="sourcePoint"/>
                        <mxPoint x="330" y="70" as="targetPoint"/>
                        <Array as="points"/>
                    </mxGeometry>
                </mxCell>
                <mxCell id="12" value="" style="endArrow=classic;html=1;exitX=0.97;exitY=0.84;exitDx=0;exitDy=0;exitPerimeter=0;entryX=0.753;entryY=-0.013;entryDx=0;entryDy=0;entryPerimeter=0;" edge="1" parent="1" target="8">
                    <mxGeometry width="50" height="50" relative="1" as="geometry">
                        <mxPoint x="380.00000000000006" y="240.02999999999997" as="sourcePoint"/>
                        <mxPoint x="484.11151291845687" y="330.0026580008872" as="targetPoint"/>
                        <Array as="points"/>
                    </mxGeometry>
                </mxCell>
                <mxCell id="13" value="" style="endArrow=classic;html=1;entryX=1;entryY=0.5;entryDx=0;entryDy=0;" edge="1" parent="1" target="9">
                    <mxGeometry width="50" height="50" relative="1" as="geometry">
                        <mxPoint x="300" y="410" as="sourcePoint"/>
                        <mxPoint x="300" y="385" as="targetPoint"/>
                    </mxGeometry>
                </mxCell>
                <mxCell id="14" value="" style="endArrow=classic;html=1;exitX=0.333;exitY=0.067;exitDx=0;exitDy=0;exitPerimeter=0;entryX=0.5;entryY=1;entryDx=0;entryDy=0;" edge="1" parent="1" source="9" target="10">
                    <mxGeometry width="50" height="50" relative="1" as="geometry">
                        <mxPoint x="110" y="229.99999999999997" as="sourcePoint"/>
                        <mxPoint x="75.18000000000006" y="369.19000000000005" as="targetPoint"/>
                        <Array as="points"/>
                    </mxGeometry>
                </mxCell>
                <mxCell id="16" value="" style="endArrow=classic;html=1;entryX=-0.03;entryY=0.693;entryDx=0;entryDy=0;entryPerimeter=0;" edge="1" parent="1" target="6">
                    <mxGeometry width="50" height="50" relative="1" as="geometry">
                        <mxPoint x="90" y="190" as="sourcePoint"/>
                        <mxPoint x="140" y="140" as="targetPoint"/>
                    </mxGeometry>
                </mxCell>
                <mxCell id="17" value="Account" style="text;html=1;align=center;verticalAlign=middle;resizable=0;points=[];autosize=1;strokeColor=none;fillColor=none;" vertex="1" parent="1">
                    <mxGeometry x="365" y="295" width="70" height="30" as="geometry"/>
                </mxCell>
                <mxCell id="18" value="&lt;h1&gt;Lead To Quote&lt;/h1&gt;" style="text;html=1;strokeColor=none;fillColor=none;spacing=5;spacingTop=-20;whiteSpace=wrap;overflow=hidden;rounded=0;" vertex="1" parent="1">
                    <mxGeometry x="150" y="260" width="190" height="30" as="geometry"/>
                </mxCell>
                <mxCell id="20" value="Lead" style="text;html=1;strokeColor=none;fillColor=none;align=center;verticalAlign=middle;whiteSpace=wrap;rounded=0;" vertex="1" parent="1">
                    <mxGeometry x="330" y="110" width="60" height="30" as="geometry"/>
                </mxCell>
                <mxCell id="21" value="Contact" style="text;html=1;strokeColor=none;fillColor=none;align=center;verticalAlign=middle;whiteSpace=wrap;rounded=0;" vertex="1" parent="1">
                    <mxGeometry x="210" y="440" width="60" height="30" as="geometry"/>
                </mxCell>
                <mxCell id="22" value="Opportunity" style="text;html=1;strokeColor=none;fillColor=none;align=center;verticalAlign=middle;whiteSpace=wrap;rounded=0;" vertex="1" parent="1">
                    <mxGeometry x="30" y="330" width="60" height="30" as="geometry"/>
                </mxCell>
                <mxCell id="23" value="Quote" style="text;html=1;strokeColor=none;fillColor=none;align=center;verticalAlign=middle;whiteSpace=wrap;rounded=0;" vertex="1" parent="1">
                    <mxGeometry x="70" y="120" width="60" height="30" as="geometry"/>
                </mxCell>
                <mxCell id="39" value="01" style="ellipse;whiteSpace=wrap;html=1;aspect=fixed;" vertex="1" parent="1">
                    <mxGeometry x="720" y="60" width="60" height="60" as="geometry"/>
                </mxCell>
                <mxCell id="40" value="02" style="ellipse;whiteSpace=wrap;html=1;aspect=fixed;" vertex="1" parent="1">
                    <mxGeometry x="890" y="180" width="60" height="60" as="geometry"/>
                </mxCell>
                <mxCell id="41" value="05" style="ellipse;whiteSpace=wrap;html=1;aspect=fixed;" vertex="1" parent="1">
                    <mxGeometry x="550" y="170" width="60" height="60" as="geometry"/>
                </mxCell>
                <mxCell id="42" value="04" style="ellipse;whiteSpace=wrap;html=1;aspect=fixed;" vertex="1" parent="1">
                    <mxGeometry x="590" y="360" width="60" height="60" as="geometry"/>
                </mxCell>
                <mxCell id="43" value="03" style="ellipse;whiteSpace=wrap;html=1;aspect=fixed;" vertex="1" parent="1">
                    <mxGeometry x="860" y="370" width="60" height="60" as="geometry"/>
                </mxCell>
                <mxCell id="44" value="" style="endArrow=classic;html=1;exitX=1;exitY=0.5;exitDx=0;exitDy=0;" edge="1" parent="1" source="39">
                    <mxGeometry width="50" height="50" relative="1" as="geometry">
                        <mxPoint x="800" y="100.02999999999997" as="sourcePoint"/>
                        <mxPoint x="904.1115129184568" y="190.0026580008872" as="targetPoint"/>
                        <Array as="points"/>
                    </mxGeometry>
                </mxCell>
                <mxCell id="45" value="" style="endArrow=classic;html=1;exitX=0.97;exitY=0.84;exitDx=0;exitDy=0;exitPerimeter=0;entryX=0.753;entryY=-0.013;entryDx=0;entryDy=0;entryPerimeter=0;" edge="1" parent="1">
                    <mxGeometry width="50" height="50" relative="1" as="geometry">
                        <mxPoint x="934.82" y="230.80999999999997" as="sourcePoint"/>
                        <mxPoint x="900.0000000000001" y="370" as="targetPoint"/>
                        <Array as="points"/>
                    </mxGeometry>
                </mxCell>
                <mxCell id="46" value="" style="endArrow=classic;html=1;entryX=1;entryY=0.5;entryDx=0;entryDy=0;exitX=0.007;exitY=0.34;exitDx=0;exitDy=0;exitPerimeter=0;" edge="1" parent="1" source="43">
                    <mxGeometry width="50" height="50" relative="1" as="geometry">
                        <mxPoint x="780" y="389.5" as="sourcePoint"/>
                        <mxPoint x="650" y="389.5" as="targetPoint"/>
                    </mxGeometry>
                </mxCell>
                <mxCell id="47" value="" style="endArrow=classic;html=1;exitX=0.5;exitY=0;exitDx=0;exitDy=0;entryX=0.5;entryY=1;entryDx=0;entryDy=0;" edge="1" parent="1" source="42">
                    <mxGeometry width="50" height="50" relative="1" as="geometry">
                        <mxPoint x="629.98" y="360" as="sourcePoint"/>
                        <mxPoint x="580" y="225.98" as="targetPoint"/>
                        <Array as="points"/>
                    </mxGeometry>
                </mxCell>
                <mxCell id="48" value="" style="endArrow=classic;html=1;entryX=-0.03;entryY=0.693;entryDx=0;entryDy=0;entryPerimeter=0;" edge="1" parent="1">
                    <mxGeometry width="50" height="50" relative="1" as="geometry">
                        <mxPoint x="600" y="180" as="sourcePoint"/>
                        <mxPoint x="723.2" y="91.58000000000004" as="targetPoint"/>
                    </mxGeometry>
                </mxCell>
                <mxCell id="49" value="&lt;h1&gt;Quote To Cash&lt;/h1&gt;" style="text;html=1;strokeColor=none;fillColor=none;spacing=5;spacingTop=-20;whiteSpace=wrap;overflow=hidden;rounded=0;" vertex="1" parent="1">
                    <mxGeometry x="670" y="260" width="190" height="45" as="geometry"/>
                </mxCell>
                <mxCell id="51" value="Quote" style="text;html=1;align=center;verticalAlign=middle;resizable=0;points=[];autosize=1;strokeColor=none;fillColor=none;" vertex="1" parent="1">
                    <mxGeometry x="850" y="115" width="60" height="30" as="geometry"/>
                </mxCell>
                <mxCell id="52" value="Order" style="text;html=1;align=center;verticalAlign=middle;resizable=0;points=[];autosize=1;strokeColor=none;fillColor=none;" vertex="1" parent="1">
                    <mxGeometry x="955" y="267.5" width="50" height="30" as="geometry"/>
                </mxCell>
                <mxCell id="53" value="Contract" style="text;html=1;align=center;verticalAlign=middle;resizable=0;points=[];autosize=1;strokeColor=none;fillColor=none;" vertex="1" parent="1">
                    <mxGeometry x="720" y="420" width="70" height="30" as="geometry"/>
                </mxCell>
                <mxCell id="54" value="Invoicing" style="text;html=1;align=center;verticalAlign=middle;resizable=0;points=[];autosize=1;strokeColor=none;fillColor=none;" vertex="1" parent="1">
                    <mxGeometry x="510" y="297.5" width="70" height="30" as="geometry"/>
                </mxCell>
                <mxCell id="55" value="Payment" style="text;html=1;align=center;verticalAlign=middle;resizable=0;points=[];autosize=1;strokeColor=none;fillColor=none;" vertex="1" parent="1">
                    <mxGeometry x="600" y="100" width="70" height="30" as="geometry"/>
                </mxCell>
            </root>
        </mxGraphModel>
    </diagram>
</mxfile>